<svg xmlns="http://www.w3.org/2000/svg" viewBox="0 0 500 500"><g id="freepik--Character--inject-148"><path d="M317.12,269.6c-6.84-6.6-22.52-4.51-25.95.35a12,12,0,0,0-15.38,6.26L259.28,281c-2.82.81-5.76,1.7-7.83,3.77s-2.86,5.74-.9,7.92c-5.8,1.92-7.54,10.86-2.88,14.81a6.36,6.36,0,0,0,1.54,9.12A63.58,63.58,0,0,0,239.65,336c-.86,2.9-1.5,6.12-.26,8.88s5.09,4.47,7.42,2.54a7.47,7.47,0,0,0,.18,8.05c-2.83.25-3.38,4.69-1.3,6.62s5.26,1.94,8.09,1.69,5.89-.6,8.32.87a2.56,2.56,0,0,1-.8,1.85c-4.61,4.28-5.54,11.19-1.56,16l1,1.24c1.8,2.22,6,4.09,8.62,5.24,6.62,2.92,10.4,2,17.62,2.6-1.65,4.75,10.64,14.2,23.28,3.28,27,5.39,46.3,6.84,73.77,5.11,3.92-.25,8.6-1.09,10.11-4.72,3.23.64,6.56-1.06,8.76-3.52s3.47-5.57,4.71-8.63a17.09,17.09,0,0,0,11.28-16.19,21.16,21.16,0,0,0,7-15.53c6.46-2.45,9.54-11.25,6-17.19a74.88,74.88,0,0,0-9.67-22.59c4.43-1.27,5.72-7.44,3.6-11.53s-6.39-6.52-10.43-8.74c3.41.68,6.06-3.74,5-7.07s-4.22-5.46-7.31-7a63.21,63.21,0,0,0-14.34-5.3c-2-5.81-10-12.05-15.69-14.3-23-9.11-38.87-10.75-66,12" style="fill:#263238"></path><path d="M382.61,351.82a8.12,8.12,0,0,1,3-2.4h-.25a4,4,0,0,1,.68-.17,3.2,3.2,0,0,1,2.54.08h0a6,6,0,0,1,3.51,2.54,7.06,7.06,0,0,1-.18,7.32,5.4,5.4,0,0,1-10-1A6.67,6.67,0,0,1,382.61,351.82Z" style="fill:#455a64"></path><path d="M382.12,308.09c-2.79-15.27-15.22-32.93-30.35-29.49l-46.41,17.76a9.08,9.08,0,0,0-7,10.1l13.76,102.32a28.31,28.31,0,0,0,26.14,24.47h0a28.32,28.32,0,0,0,30.15-30.36c-.53-7.06-.91-12.37-.91-12.33s19.26-5.59,20.3-31.71C388.33,345.87,385.22,325,382.12,308.09Z" style="fill:#876760"></path><path d="M374.45,329.68a3.31,3.31,0,0,1-2.78,3.69,3.16,3.16,0,0,1-3.74-2.56,3.31,3.31,0,0,1,2.77-3.69A3.17,3.17,0,0,1,374.45,329.68Z" style="fill:#263238"></path><path d="M378.87,319.5c-.36.47-3.07-1.08-6.6-.65s-5.92,2.51-6.36,2.12c-.21-.17.12-1,1.15-2a9.06,9.06,0,0,1,5-2.22,8.74,8.74,0,0,1,5.32,1C378.59,318.55,379.05,319.28,378.87,319.5Z" style="fill:#263238"></path><path d="M342.59,332.86a3.31,3.31,0,0,1-2.78,3.69,3.16,3.16,0,0,1-3.74-2.56,3.31,3.31,0,0,1,2.77-3.69A3.17,3.17,0,0,1,342.59,332.86Z" style="fill:#263238"></path><path d="M344.18,324.27c-.36.48-3.07-1.07-6.6-.64s-5.92,2.51-6.36,2.12c-.21-.17.11-1,1.15-1.95a9.14,9.14,0,0,1,5-2.23,8.82,8.82,0,0,1,5.32,1.05C343.89,323.33,344.36,324.06,344.18,324.27Z" style="fill:#263238"></path><path d="M360.12,349c0-.2,2.12-.84,5.63-1.72.89-.2,1.72-.48,1.8-1.12a4.62,4.62,0,0,0-.92-2.6L363.14,337c-4.86-9.36-8.5-17.09-8.13-17.28s4.64,7.23,9.51,16.58c1.17,2.31,2.3,4.51,3.37,6.62a5.22,5.22,0,0,1,.89,3.49,2.26,2.26,0,0,1-1.33,1.49,5.91,5.91,0,0,1-1.5.4C362.38,348.91,360.16,349.19,360.12,349Z" style="fill:#263238"></path><path d="M367.52,390.56a65.71,65.71,0,0,1-35.41-5.09s10.42,16.62,35.79,11.18Z" style="fill:#664d49"></path><path d="M360.6,357.46a8.75,8.75,0,0,0-7.62-2.95,5.71,5.71,0,0,0-4.36,3.08,5.53,5.53,0,0,0,.77,5.71,5.45,5.45,0,0,0,6,1.38,13,13,0,0,0,4.83-3.84,4,4,0,0,0,1-1.45,1.83,1.83,0,0,0-.35-1.78" style="fill:#664d49"></path><path d="M350,352.67c.57-.1,1,3.73,4.65,6.07s7.64,1.43,7.73,2c.09.24-.82.86-2.54,1.11a9.62,9.62,0,0,1-6.44-1.42,8.43,8.43,0,0,1-3.64-5.12C349.42,353.68,349.74,352.68,350,352.67Z" style="fill:#263238"></path><path d="M344,309.53c-.24,1-3.82,1-7.91,2s-7.32,2.52-8,1.73c-.3-.39.18-1.36,1.42-2.45a14.19,14.19,0,0,1,12.1-2.81C343.26,308.39,344.11,309.05,344,309.53Z" style="fill:#263238"></path><path d="M376.18,307.47c-.52.88-3.06.33-6,.64s-5.35,1.18-6,.41c-.3-.38,0-1.23,1-2.12a8.76,8.76,0,0,1,9.68-.85C376,306.26,376.41,307,376.18,307.47Z" style="fill:#263238"></path><path d="M394.58,319.6a17.71,17.71,0,0,0-5.08-10.77c-1.63-1.5-3.63-2.59-5.1-4.25-3.18-3.59-3.15-8.9-4.72-13.43a19.51,19.51,0,0,0-13-12.19c-5-1.36-10.41-.73-15.11-2.8-3.48-1.53-6.25-4.43-9.81-5.75-6.94-2.58-14.47,1.44-20.53,5.68-.89,5.13,2.61,9.25,6,13.21A18.07,18.07,0,0,0,341,295.54c4-.06,8.66-1.31,11.7,1.35s2.43,8.2,5.12,11.47c3.86,4.69,11.66,2.23,17.11,4.9,4.21,2.06,6.26,6.76,8.6,10.82s6.17,8.19,10.82,7.63A52.79,52.79,0,0,0,394.58,319.6Z" style="fill:#263238"></path><path d="M331.94,284.52a91.47,91.47,0,0,0-34,8.74c-3.16,1.52-6.42,3.38-8.06,6.48-1.44,2.73-1.4,6-1.14,9.06.82,9.62,5.57,21.13,9.9,29.77l12.56,6.32c9.1-2.88,3.67-18.56,2.64-26.55a19,19,0,0,0,9.83-17.53A21,21,0,0,0,331.94,284.52Z" style="fill:#263238"></path><path d="M310.78,341.44c-.77-5.48-7.62-6.06-12.14-2.87-2.49,1.75-4.22,5-3.45,10.8,2,15.54,17.21,10.28,17.18,9.83C312.35,358.93,311.68,347.86,310.78,341.44Z" style="fill:#876760"></path><path d="M306.85,353.94c-.07,0-.24.23-.67.5a2.74,2.74,0,0,1-2,.3c-1.72-.38-3.45-2.81-3.89-5.6a9.14,9.14,0,0,1,.25-4,3.15,3.15,0,0,1,1.76-2.35,1.4,1.4,0,0,1,1.7.54c.26.4.2.73.29.74s.3-.3.09-.93a1.73,1.73,0,0,0-.74-.89,2.07,2.07,0,0,0-1.55-.2,3.86,3.86,0,0,0-2.51,2.78,9.36,9.36,0,0,0-.37,4.45c.51,3.12,2.5,5.84,4.83,6.19a2.89,2.89,0,0,0,2.42-.73C306.87,354.32,306.91,354,306.85,353.94Z" style="fill:#664d49"></path><path d="M298.38,358.07a8.12,8.12,0,0,1,3-2.4h-.24a5.54,5.54,0,0,1,.67-.18,3.2,3.2,0,0,1,2.54.09h0a6,6,0,0,1,3.5,2.53,7.06,7.06,0,0,1-.18,7.32,5.39,5.39,0,0,1-10-1A6.71,6.71,0,0,1,298.38,358.07Z" style="fill:#455a64"></path><path d="M305.6,360.63s0,.07,0,.21a2,2,0,0,1-.17.61,3.59,3.59,0,0,1-1.68,1.75,9.62,9.62,0,0,1-3.8,1.09,12.41,12.41,0,0,1-2.52,0,9.38,9.38,0,0,1-2.79-.62l.18-.11a7.79,7.79,0,0,1-12,5.84l.27-.07a3.27,3.27,0,0,1-1.95,1.52,4.48,4.48,0,0,1-2.54,0,4.13,4.13,0,0,1-2.16-1.5,5.49,5.49,0,0,1-1-2.51,8,8,0,0,1,1.32-5.33,23.2,23.2,0,0,1,3.82-4.31l.05.36a5.51,5.51,0,0,1-2.75-3.51,8.07,8.07,0,0,1,.11-4.64,12.46,12.46,0,0,1,2.44-4.09,38.44,38.44,0,0,1,3.47-3.4v.36a5.85,5.85,0,0,1-1.87-4.42,8.4,8.4,0,0,1,1.42-4.76c1.82-2.71,4.63-4.34,7.22-5.87l-.11.28a10.39,10.39,0,0,1,10.31-13.62l-.22.28a9,9,0,0,1,1.55-7.74,8.86,8.86,0,0,1,6.35-3.73l-.18.21a8.84,8.84,0,0,1,3-7.06,8.6,8.6,0,0,1,6.39-2.28l-.16.17a8.45,8.45,0,0,1,1-4.1,11.13,11.13,0,0,1,2.15-3,9,9,0,0,1,5.17-2.69l.58-.08h.56a6.3,6.3,0,0,1,1,0,9.57,9.57,0,0,1,1.52.31l.9.31a1.44,1.44,0,0,1,.3.12l-.31-.08-.91-.27A10.34,10.34,0,0,0,328,284a7.72,7.72,0,0,0-1,0h-.55l-.57.09a8.9,8.9,0,0,0-5,2.7,10.83,10.83,0,0,0-2.08,3,8.25,8.25,0,0,0-.92,3.95v.18h-.17a8.31,8.31,0,0,0-6.13,2.23,8.45,8.45,0,0,0-2.89,6.77l0,.2h-.2a8.46,8.46,0,0,0-6,3.58,8.58,8.58,0,0,0-1.47,7.38l.09.29h-.31a9.94,9.94,0,0,0-9.84,13l.06.18-.17.1c-2.58,1.53-5.33,3.14-7.06,5.72a8,8,0,0,0-1.34,4.5,5.38,5.38,0,0,0,1.71,4.06l.2.18-.2.17c-2.4,2.14-4.81,4.38-5.78,7.29a7.54,7.54,0,0,0-.11,4.36,5,5,0,0,0,2.51,3.24l.28.15-.23.21a23.57,23.57,0,0,0-3.76,4.22,7.58,7.58,0,0,0-1.27,5,4.2,4.2,0,0,0,2.84,3.69,3.44,3.44,0,0,0,4.05-1.29l.1-.18.16.11a7.59,7.59,0,0,0,7.92.17,7.69,7.69,0,0,0,3.62-5.72l0-.18.16.07a9.09,9.09,0,0,0,2.71.63,13.72,13.72,0,0,0,2.48,0,9.46,9.46,0,0,0,3.75-1,3.66,3.66,0,0,0,1.69-1.66C305.55,360.92,305.57,360.62,305.6,360.63Z" style="fill:#455a64"></path><path d="M244.94,348.27a5.53,5.53,0,0,1-.66-.89,8.18,8.18,0,0,1-1.05-3,7.9,7.9,0,0,1,.92-5,8.34,8.34,0,0,1,5.39-4l-.12.2a10.72,10.72,0,0,1,.85-7.81,10.56,10.56,0,0,1,2.81-3.47A25.11,25.11,0,0,1,257.2,322a8.59,8.59,0,0,0,2-1.36,5.36,5.36,0,0,0,1.28-2c.59-1.54.68-3.33,1.44-5a9.51,9.51,0,0,1,9.16-5.41l-.25.28a12.53,12.53,0,0,1,12.81-15.18l-.24.28A11,11,0,0,1,299.67,282l-.25,0a15.06,15.06,0,0,1,5.21-3.72,22.45,22.45,0,0,1,5.51-1.7,26.31,26.31,0,0,1,9.29-.05,18.56,18.56,0,0,1,5.67,1.88,10.51,10.51,0,0,1,1.33.83c.3.2.44.31.44.31s-.62-.4-1.83-1a19,19,0,0,0-5.65-1.76,26,26,0,0,0-9.2.14,22.23,22.23,0,0,0-5.41,1.71,14.62,14.62,0,0,0-5,3.65l-.11.13-.14-.09a10.92,10.92,0,0,0-10.86.22,10.79,10.79,0,0,0-4.8,10.86l.05.29h-.3a12.08,12.08,0,0,0-12.33,14.61l.07.31-.31,0a9,9,0,0,0-8.71,5.13c-.73,1.56-.83,3.34-1.44,5a5.68,5.68,0,0,1-1.4,2.17,8.9,8.9,0,0,1-2.05,1.43,24.67,24.67,0,0,0-4.07,2.26,10,10,0,0,0-2.73,3.33,10.41,10.41,0,0,0-.88,7.55l.05.16-.17,0a8.05,8.05,0,0,0-5.24,3.82,7.76,7.76,0,0,0-1,4.85,8.41,8.41,0,0,0,1,3C244.71,348,245,348.26,244.94,348.27Z" style="fill:#455a64"></path><path d="M394.47,341.63a1.6,1.6,0,0,1-.15-1.28,3.07,3.07,0,0,1,.82-1.36,5.47,5.47,0,0,1,1.86-1.11,9.19,9.19,0,0,0,2.36-1.19,4.89,4.89,0,0,0,1.57-2.63,9.36,9.36,0,0,0,.13-3.6c-.15-1.29-.45-2.64-.55-4.1-.25-2.95.79-6.05,1.31-9.36a13.18,13.18,0,0,0-.16-5.15,6.29,6.29,0,0,0-3.15-4.18c-1.66-.86-3.64-1-5.61-1.46a9.25,9.25,0,0,1-2.89-1.09,6.25,6.25,0,0,1-2.15-2.33,30.44,30.44,0,0,1-2.09-6,10.27,10.27,0,0,0-1.3-2.88A4.77,4.77,0,0,0,382,292a17.44,17.44,0,0,0-4.36-.27,7.11,7.11,0,0,1-2.22-.39,4.28,4.28,0,0,1-1.83-1.33,15.39,15.39,0,0,1-1.93-3.87,9.67,9.67,0,0,0-2.21-3.38,9.44,9.44,0,0,0-7-2.75,9.69,9.69,0,0,0-6.45,2.88l-.2.2-.13-.24a14.9,14.9,0,0,0-9.85-7.33,13.69,13.69,0,0,0-5.25-.07,12.49,12.49,0,0,0-4.2,1.51,11,11,0,0,0-4.25,4.52,11.94,11.94,0,0,0-.67,1.52l-.15.4c0,.09-.06.13-.07.13a1.31,1.31,0,0,1,0-.14l.12-.41a9.79,9.79,0,0,1,.62-1.56,11,11,0,0,1,4.24-4.67,12.56,12.56,0,0,1,4.27-1.58,14.06,14.06,0,0,1,5.37,0A15.26,15.26,0,0,1,356,282.69l-.33,0a10.1,10.1,0,0,1,6.72-3,9.88,9.88,0,0,1,7.38,2.87,10.09,10.09,0,0,1,2.32,3.52,15.09,15.09,0,0,0,1.86,3.75,4.56,4.56,0,0,0,3.71,1.54,17.14,17.14,0,0,1,4.48.3,5.24,5.24,0,0,1,2.7,2,11,11,0,0,1,1.36,3,30.89,30.89,0,0,0,2,5.93,5.88,5.88,0,0,0,2,2.17,9.08,9.08,0,0,0,2.74,1c1.92.44,3.94.59,5.71,1.51a5.92,5.92,0,0,1,2.19,1.9,7.72,7.72,0,0,1,1.16,2.57,13.39,13.39,0,0,1,.15,5.3c-.55,3.37-1.59,6.42-1.37,9.29.1,1.43.38,2.78.52,4.08a9.66,9.66,0,0,1-.17,3.7,5.07,5.07,0,0,1-1.69,2.75,9.37,9.37,0,0,1-2.43,1.19,5.15,5.15,0,0,0-1.83,1,3,3,0,0,0-.83,1.28A2.06,2.06,0,0,0,394.47,341.63Z" style="fill:#455a64"></path><path d="M423,315.25s-.07-.09-.18-.28l-.5-.84c-.43-.77-1.06-1.87-1.85-3.26s-1.74-3.19-3-5.11a13.84,13.84,0,0,0-5.63-5.22c-1.31-.59-2.8-.94-4.32-1.48a9.76,9.76,0,0,1-2.22-1.1,5.29,5.29,0,0,1-1.74-1.92c-.86-1.56-1-3.4-1.73-5a4.47,4.47,0,0,0-1.65-2,8.54,8.54,0,0,0-2.6-1,16.28,16.28,0,0,1-2.83-.85,5,5,0,0,1-2.3-2.06c-1.07-1.82-1.24-4-1.77-6a7.51,7.51,0,0,0-1.25-2.79,3.93,3.93,0,0,0-2.59-1.45c-2.08-.27-4.24.6-6.55.41a5.61,5.61,0,0,1-3.12-1.37A14.21,14.21,0,0,1,375,271.4a31.54,31.54,0,0,0-1.91-2.56,6.1,6.1,0,0,0-2.44-1.8c-1.92-.72-4-.1-5.89.48a13.93,13.93,0,0,1-5.89,1,16,16,0,0,1-5.33-2,26.15,26.15,0,0,0-4.77-2.22,16.19,16.19,0,0,0-9.28.38,17.16,17.16,0,0,0-6.6,4,19.21,19.21,0,0,0-3.46,4.76,22.7,22.7,0,0,0-1.38,3.47l-.29.93a1.72,1.72,0,0,1-.12.32,1.11,1.11,0,0,1,.07-.33c.06-.24.14-.55.25-.95a20.39,20.39,0,0,1,1.3-3.52,19,19,0,0,1,3.44-4.87,17.46,17.46,0,0,1,6.68-4.16,16.47,16.47,0,0,1,9.5-.44,26.81,26.81,0,0,1,4.86,2.23,15.67,15.67,0,0,0,5.18,1.9,13.34,13.34,0,0,0,5.7-.94,18.54,18.54,0,0,1,3-.75,6,6,0,0,1,5.82,2.19,28.77,28.77,0,0,1,1.94,2.6,14,14,0,0,0,2.07,2.46,5.08,5.08,0,0,0,2.85,1.26c2.15.19,4.3-.69,6.57-.41a4.38,4.38,0,0,1,2.89,1.63,7.89,7.89,0,0,1,1.33,3c.54,2,.71,4.15,1.71,5.84a4.63,4.63,0,0,0,2.09,1.88,16,16,0,0,0,2.76.84,8.75,8.75,0,0,1,2.72,1,4.92,4.92,0,0,1,1.81,2.21c.73,1.73.88,3.55,1.69,5a6.39,6.39,0,0,0,3.74,2.85c1.48.54,3,.9,4.33,1.52a14.08,14.08,0,0,1,5.71,5.38c1.27,1.95,2.17,3.74,3,5.17l1.78,3.3.45.87A1.78,1.78,0,0,1,423,315.25Z" style="fill:#455a64"></path><path d="M405.2,300.14l.28-.07a1.8,1.8,0,0,1,.85.12,3.34,3.34,0,0,1,1.75,2.65,8.07,8.07,0,0,1-.16,2.36,9.68,9.68,0,0,0-.21,2.73,6.08,6.08,0,0,0,1.31,2.8c.68.9,1.51,1.77,2.22,2.84a4.47,4.47,0,0,1,.67,3.9c-.4,1.36-1.28,2.55-1.65,3.93a5.82,5.82,0,0,0,.73,4.26c.72,1.39,1.69,2.71,2.4,4.25a7,7,0,0,1,.68,2.49,6.23,6.23,0,0,1-.4,2.63,30.17,30.17,0,0,1-2.64,4.66,7.22,7.22,0,0,0-1.29,5.07c.33,1.78,1.47,3.36,2.27,5.12a8,8,0,0,1,.79,2.83,6.34,6.34,0,0,1-.53,2.86,23.53,23.53,0,0,1-3,4.66,12.59,12.59,0,0,0-2.4,4.61,38.24,38.24,0,0,1-1.27,5,5.64,5.64,0,0,1-1.44,2.09,7.12,7.12,0,0,1-2.13,1.22,21.41,21.41,0,0,0-2.1.93,7.88,7.88,0,0,0-1.72,1.36,16.12,16.12,0,0,0-2.31,3.53c-.63,1.21-1.21,2.4-1.89,3.48a10.7,10.7,0,0,1-5.14,4.4,11.62,11.62,0,0,1-5.06.86,10.23,10.23,0,0,1-3.18-.68,8.44,8.44,0,0,1-1-.5,11.6,11.6,0,0,0,4.21,1,11.39,11.39,0,0,0,5-.92,10.48,10.48,0,0,0,5-4.33c.65-1.06,1.22-2.24,1.84-3.47a16.63,16.63,0,0,1,2.35-3.63,8.26,8.26,0,0,1,1.81-1.44,18.64,18.64,0,0,1,2.14-1,6.94,6.94,0,0,0,2-1.16,5.27,5.27,0,0,0,1.32-1.94,40.19,40.19,0,0,0,1.23-4.92,13,13,0,0,1,2.47-4.78,24,24,0,0,0,3-4.56,6,6,0,0,0,.49-2.65,7.75,7.75,0,0,0-.75-2.66c-.78-1.71-1.94-3.31-2.3-5.24a6,6,0,0,1,.17-2.86,11.4,11.4,0,0,1,1.18-2.52,30.85,30.85,0,0,0,2.61-4.59,5.87,5.87,0,0,0,.39-2.44,6.85,6.85,0,0,0-.64-2.34c-.68-1.49-1.64-2.81-2.37-4.23a6.29,6.29,0,0,1-.75-4.56c.42-1.48,1.31-2.65,1.69-3.94a4.11,4.11,0,0,0-.61-3.61c-.66-1-1.49-1.92-2.17-2.84a6.19,6.19,0,0,1-1.33-3,10,10,0,0,1,.24-2.8,7.87,7.87,0,0,0,.21-2.29,3.29,3.29,0,0,0-1.61-2.59A2,2,0,0,0,405.2,300.14Z" style="fill:#455a64"></path><path d="M245.29,347.74a6.44,6.44,0,0,1-1.24,0,8.6,8.6,0,0,1-3.39-1.17,8.38,8.38,0,0,1-3.63-4.36,8.78,8.78,0,0,1,.73-7.46,21.75,21.75,0,0,1,2.88-3.43,10.53,10.53,0,0,0,2.64-3.93,6.86,6.86,0,0,0-.61-4.94c-.72-1.63-1.75-3.19-2.46-5a15.34,15.34,0,0,1,10.08-20.34l-.12.37a7.63,7.63,0,0,1-1.6-3.31,9.75,9.75,0,0,1,0-3.73,11,11,0,0,1,1.31-3.54,12.57,12.57,0,0,1,2.45-2.94,24.2,24.2,0,0,1,10-4.91,36.88,36.88,0,0,1,10.46-1.24l-.23.24A11.11,11.11,0,0,1,278,268a11.31,11.31,0,0,1,5.41-1.46,18,18,0,0,1,5.22,1,10.38,10.38,0,0,0,2.44.37,6.29,6.29,0,0,0,2.33-.42,19.27,19.27,0,0,0,4-2.31,16.45,16.45,0,0,1,3.81-2.1,13.27,13.27,0,0,1,3.91-.82,13.14,13.14,0,0,1,6.61,1.28,13.69,13.69,0,0,1,4,3,13.34,13.34,0,0,1,1.84,2.57,7.37,7.37,0,0,1,.46,1s-.17-.33-.53-.94a13.61,13.61,0,0,0-5.91-5.42,13.39,13.39,0,0,0-10.31-.36,16.44,16.44,0,0,0-3.72,2.08,19.54,19.54,0,0,1-4,2.38,6.55,6.55,0,0,1-2.46.45,10.9,10.9,0,0,1-2.54-.37,18,18,0,0,0-5.12-.94,11,11,0,0,0-5.19,1.42,10.67,10.67,0,0,0-5.31,9.67v.25h-.25a36.19,36.19,0,0,0-10.32,1.23,23.78,23.78,0,0,0-9.76,4.81,12.26,12.26,0,0,0-2.36,2.83A10.35,10.35,0,0,0,249,290.5a9.16,9.16,0,0,0,0,3.54,7.22,7.22,0,0,0,1.5,3.11l.23.28-.35.1a14.93,14.93,0,0,0-9.82,19.74c.68,1.76,1.7,3.33,2.44,5a7.32,7.32,0,0,1,.6,5.21,10.78,10.78,0,0,1-2.75,4,21.89,21.89,0,0,0-2.86,3.37,8.55,8.55,0,0,0-.77,7.22,8.28,8.28,0,0,0,3.49,4.3,8.84,8.84,0,0,0,3.32,1.22C244.87,347.73,245.29,347.71,245.29,347.74Z" style="fill:#263238"></path><path d="M409.91,289a1.48,1.48,0,0,1-.07-.3q-.06-.33-.15-.87c-.13-.79-.32-1.91-.56-3.34s-.6-3.22-1.14-5.24a30.37,30.37,0,0,0-2.56-6.58,20.16,20.16,0,0,0-5.48-6.47,14.86,14.86,0,0,0-4.19-2.17,44.54,44.54,0,0,0-4.95-1,14.06,14.06,0,0,1-5.08-1.82,22.08,22.08,0,0,1-4.27-3.66c-1.32-1.37-2.59-2.83-4-4.12a16,16,0,0,0-4.94-3.11A28.29,28.29,0,0,0,361,248.72,72.09,72.09,0,0,0,350.22,250a55.58,55.58,0,0,0-17.28,6.22,39.58,39.58,0,0,0-9.67,7.75c-.48.55-.93,1-1.28,1.47s-.62.82-.86,1.14-.41.52-.54.7-.2.23-.2.23,0-.09.16-.26l.5-.72.83-1.18c.34-.45.78-.94,1.25-1.51a38.78,38.78,0,0,1,9.64-7.91,55.13,55.13,0,0,1,17.36-6.36A73,73,0,0,1,361,248.26a28.53,28.53,0,0,1,11.65,1.59,16.28,16.28,0,0,1,5.07,3.2c1.48,1.32,2.75,2.79,4.05,4.15a22.36,22.36,0,0,0,4.17,3.6,14,14,0,0,0,4.93,1.77,44.29,44.29,0,0,1,5,1.07,15.13,15.13,0,0,1,4.29,2.26,20.19,20.19,0,0,1,5.54,6.62,30.24,30.24,0,0,1,2.52,6.67c.53,2,.84,3.82,1.07,5.27s.38,2.6.48,3.37c0,.36.07.65.1.88S409.91,289,409.91,289Z" style="fill:#263238"></path><path d="M415.37,478.06l-2-50.45s-3.74-10.47-5-10.47l-39.24-13.4s-13.41,14.77-29.23,13.11-28.67-14.6-28.67-14.6l-43.68,10.43h0c-3.16.64-8.94,2.64-14.46,10.52-6.15,8.8-38.57,54.6-38.57,54.6" style="fill:#455a64"></path><path d="M407.57,416.85s16,5.1,22.16,14.36,25.26,47,25.26,47H413.18l-14.25-47.84Z" style="fill:#455a64"></path><path d="M414.5,477.9a11.41,11.41,0,0,1,0-1.67,30.5,30.5,0,0,0-.54-4.51,77,77,0,0,0-4.55-14.3c-2.2-5.45-4.53-10.24-6.21-13.71-.82-1.68-1.51-3.06-2-4.1l-.53-1.12a1.66,1.66,0,0,1-.16-.41,1.44,1.44,0,0,1,.24.37l.62,1.08c.53.94,1.27,2.31,2.15,4,1.76,3.43,4.14,8.21,6.36,13.68a70.19,70.19,0,0,1,4.43,14.42,25.87,25.87,0,0,1,.4,4.57c0,.54-.08,1-.1,1.24A1.78,1.78,0,0,1,414.5,477.9Z" style="fill:#263238"></path><path d="M213.53,427.24c-.9-.72,3-15,3-15s-10.35-16-10.62-21.21S210,375.24,210,375.24L239.7,368s9.55,16.81,11.45,22.76-3.27,26.13-3.27,26.13l-5,10.35S227.68,438.62,213.53,427.24Z" style="fill:#876760"></path><path d="M206,394.11a59.4,59.4,0,0,1-3.13-6.26c-1.88-4.23-4.19-8.38,0-10.75a5.75,5.75,0,0,1,4.48-.67s-.64-3.56,1.6-4.9a5.06,5.06,0,0,1,4.4-.37s-.7-5,2.52-7.15a8.19,8.19,0,0,1,8.23-.23s-2.56-22-2.78-23.17c-.81-4.28.86-8.06,5.34-7,1.64.39,2.56,2,4.48,9.2s5,19.4,5,19.4,5.21,8.6,7.68,13.27,7.33,15.29,7.74,18.11c1.05,7.28-3.44,16.91-3.44,16.91l-31.58,1.74S207.18,396.2,206,394.11Z" style="fill:#876760"></path><path d="M207.94,377.38a23.88,23.88,0,0,1,2.45,3.24l2.49,3.6a14.09,14.09,0,0,1,1.36,2.26,4.38,4.38,0,0,1,.37,2.85,2.9,2.9,0,0,1-2,2.22,4.08,4.08,0,0,1-2.83-.33,12.1,12.1,0,0,1-2.11-1.24c-.62-.42-1.19-.82-1.7-1.21-1-.76-1.82-1.41-2.36-1.87a4.06,4.06,0,0,1-.78-.78c.07-.07,1.32.88,3.42,2.3a28.76,28.76,0,0,0,3.78,2.27,3.58,3.58,0,0,0,2.38.28A2.32,2.32,0,0,0,214,389.2a3.8,3.8,0,0,0-.33-2.48,14.73,14.73,0,0,0-1.27-2.19L210,380.85A25.63,25.63,0,0,1,207.94,377.38Z" style="fill:#664d49"></path><path d="M233.84,380c-.17,0-.33-2.15.33-4.71s1.82-4.41,2-4.33-.71,2-1.33,4.48S234,380,233.84,380Z" style="fill:#664d49"></path><path d="M246.35,386.42a21.29,21.29,0,0,0-10.56-5.23,41.8,41.8,0,0,0-12-.44c-3.21.28-6.88,1.07-8.34,3.8s.31,6.42,3.16,8,6.37,1.68,9.67,1.39,6.64-.87,9.92-.38" style="fill:#876760"></path><path d="M238.17,393.6s-.89-.08-2.49-.06-3.9.28-6.76.61a31.17,31.17,0,0,1-4.74.19,13.57,13.57,0,0,1-5.32-1.27,7.85,7.85,0,0,1-4-4.36,5.59,5.59,0,0,1-.23-3.12,5.31,5.31,0,0,1,1.74-2.78,11.71,11.71,0,0,1,6.07-2.23,54.82,54.82,0,0,1,6-.35,31.92,31.92,0,0,1,10,1.45,20.4,20.4,0,0,1,6,3.08,12.75,12.75,0,0,1,1.38,1.19,2.62,2.62,0,0,1,.42.47c0,.05-.66-.57-1.95-1.46a21.57,21.57,0,0,0-6-2.86,32.51,32.51,0,0,0-9.89-1.29,58.48,58.48,0,0,0-5.91.38,11.11,11.11,0,0,0-5.71,2.09,4.64,4.64,0,0,0-1.54,2.44,5.09,5.09,0,0,0,.19,2.79,7.37,7.37,0,0,0,3.62,4.05,13.19,13.19,0,0,0,5.07,1.26,30.68,30.68,0,0,0,4.66-.12,57.39,57.39,0,0,1,6.81-.41,17.92,17.92,0,0,1,1.86.16A2.55,2.55,0,0,1,238.17,393.6Z" style="fill:#664d49"></path><path d="M208.17,377.72a173,173,0,0,1,9.06,15.14,9.41,9.41,0,0,0,3.17,3.91c1.2.7,4.17-.57,5.5-1l-9.12-19.71" style="fill:#876760"></path><path d="M216.78,376.06a9.83,9.83,0,0,1,.81,1.47l2,4.13c1.69,3.51,4,8.42,6.59,14l.14.31-.34.11a32.13,32.13,0,0,1-3.18,1,7.06,7.06,0,0,1-1.39.2,2.82,2.82,0,0,1-.75-.08,1.92,1.92,0,0,1-.69-.32,6.92,6.92,0,0,1-1.84-1.86c-.93-1.4-1.59-2.8-2.34-4.11-1.43-2.62-2.74-5-3.88-6.91s-2.1-3.52-2.76-4.59a12.54,12.54,0,0,1-1-1.7,10.44,10.44,0,0,1,1.22,1.57c.73,1,1.75,2.57,3,4.5s2.55,4.26,4,6.86c.76,1.29,1.45,2.72,2.35,4a6.14,6.14,0,0,0,1.67,1.7,2.88,2.88,0,0,0,2.29.1c1.08-.26,2.11-.66,3.13-1l-.19.42c-2.57-5.57-4.81-10.51-6.4-14.06l-1.83-4.21A8.21,8.21,0,0,1,216.78,376.06Z" style="fill:#664d49"></path><path d="M214.32,370.21l8.79,20.94a14.28,14.28,0,0,0,2.37,4.2,5.21,5.21,0,0,0,4.43,1.83c2.29-.32,3.79-2.63,3.9-4.83s-.8-4.3-1.64-6.35a127.13,127.13,0,0,1-6.31-19.6" style="fill:#876760"></path><path d="M225.86,366.4a2.83,2.83,0,0,1,.22.64l.52,1.85c.46,1.61,1.12,3.93,2.05,6.77s2.13,6.18,3.64,9.84a19.78,19.78,0,0,1,1.84,6,6.18,6.18,0,0,1-.66,3.32,5,5,0,0,1-2.65,2.46,4.63,4.63,0,0,1-3.69-.28,6.89,6.89,0,0,1-2.6-2.32,37,37,0,0,1-2.66-5.69l-4-9.74c-1.1-2.72-2-4.95-2.65-6.58l-.69-1.81a2.69,2.69,0,0,1-.2-.64,2.75,2.75,0,0,1,.32.6l.81,1.76,2.84,6.51,4.15,9.68a36.59,36.59,0,0,0,2.64,5.57,6.12,6.12,0,0,0,2.35,2.1,4,4,0,0,0,3.15.26,4.43,4.43,0,0,0,2.3-2.15,5.59,5.59,0,0,0,.6-3,19.2,19.2,0,0,0-1.76-5.81c-1.49-3.68-2.65-7.06-3.52-9.93s-1.47-5.21-1.85-6.83c-.18-.82-.32-1.45-.4-1.88A2.79,2.79,0,0,1,225.86,366.4Z" style="fill:#664d49"></path><path d="M215,419.31s-20.15,56.36-20.94,59.12h39.6l14.52-62.9Z" style="fill:#876760"></path><path d="M234.64,410.55a4,4,0,0,1-1.9-.24,10.63,10.63,0,0,1-4-2.19,10,10,0,0,1-2.65-3.6,3.49,3.49,0,0,1-.41-1.77c.19-.07.89,2.68,3.5,4.91S234.7,410.36,234.64,410.55Z" style="fill:#664d49"></path><path d="M279.56,453c.13.07-2.74,5.7-6.41,12.57s-6.73,12.39-6.86,12.32,2.74-5.69,6.41-12.57S279.43,453,279.56,453Z" style="fill:#263238"></path></g><g id="freepik--light-bulb--inject-148"><path d="M257,163.11a70,70,0,1,0-108.34,47.17c-1.28,8.19-2.72,17.44-2.72,17.44l60.59,9.45s1.89-9.73,3.39-18.45A70,70,0,0,0,257,163.11Z" style="fill:#F97116"></path><path d="M197.42,235.74s0-.3,0-.87.06-1.45.11-2.56c.1-2.25.29-5.57.59-9.84.61-8.53,1.69-20.88,3.91-36q.81-5.69,1.87-11.87.54-3.08,1.11-6.29a21.82,21.82,0,0,1,1.83-6.41,7.38,7.38,0,0,1,2.26-2.62,4.54,4.54,0,0,1,3.43-.85,4.21,4.21,0,0,1,2.79,2.25,6.58,6.58,0,0,1,.74,3.57,8.14,8.14,0,0,1-4,6,12.24,12.24,0,0,1-7.29,1.81,13.28,13.28,0,0,1-7.22-2.67A14,14,0,0,1,193,163a16.76,16.76,0,0,1-.88-8,12.19,12.19,0,0,1,1.17-4,5.8,5.8,0,0,1,3-3,3.77,3.77,0,0,1,2.18-.1,4.74,4.74,0,0,1,1.91,1,6.75,6.75,0,0,1,2.11,3.71,14.52,14.52,0,0,1,.21,4.26,40.7,40.7,0,0,1-.57,4.24,28.79,28.79,0,0,1-2.71,8.19,15.86,15.86,0,0,1-5.85,6.47,12.78,12.78,0,0,1-4.13,1.61,9.81,9.81,0,0,1-4.41-.16,9.24,9.24,0,0,1-3.78-2.23,12,12,0,0,1-2.47-3.57,26.37,26.37,0,0,1-2.05-8.26c-.16-1.4-.25-2.79-.3-4.18a25.52,25.52,0,0,1,.07-4.19,6.92,6.92,0,0,1,1.65-3.85,4.52,4.52,0,0,1,1.77-1.21,3,3,0,0,1,2.15,0,3.67,3.67,0,0,1,1.64,1.37,7.16,7.16,0,0,1,.88,1.88,13.73,13.73,0,0,1,.58,4c.12,5.31-1.17,10.69-4.31,14.79a15,15,0,0,1-5.94,4.61,11.2,11.2,0,0,1-7.27.65,9.74,9.74,0,0,1-5.63-4.28,11,11,0,0,1-1.8-6.64,9.2,9.2,0,0,1,.81-3.31,5.07,5.07,0,0,1,2.28-2.47,2.6,2.6,0,0,1,3.14.75,6.14,6.14,0,0,1,1.15,3,25.17,25.17,0,0,1-.24,6.16q-.31,3-.61,5.84c-1.6,15.21-3.13,27.5-4.33,36-.6,4.24-1.13,7.52-1.5,9.74-.19,1.1-.34,1.94-.44,2.53s-.17.85-.17.85,0-.29.11-.86.23-1.43.4-2.53c.34-2.23.83-5.51,1.4-9.75,1.15-8.48,2.62-20.77,4.18-36q.28-2.85.59-5.84a25,25,0,0,0,.22-6.06,5.68,5.68,0,0,0-1.07-2.82,2.2,2.2,0,0,0-2.67-.64,4.71,4.71,0,0,0-2.07,2.28,8.67,8.67,0,0,0-.76,3.15,10.62,10.62,0,0,0,1.74,6.38,9.23,9.23,0,0,0,5.38,4.09,10.8,10.8,0,0,0,7-.64,14.41,14.41,0,0,0,5.75-4.48c3-4,4.32-9.26,4.19-14.48a13.22,13.22,0,0,0-.55-3.87,4.41,4.41,0,0,0-2.24-2.94,3,3,0,0,0-3.37,1,6.36,6.36,0,0,0-1.52,3.59,23.3,23.3,0,0,0-.07,4.1c0,1.38.14,2.77.29,4.15a25.72,25.72,0,0,0,2,8.09,11.12,11.12,0,0,0,2.36,3.43,8.7,8.7,0,0,0,3.57,2.1,10.45,10.45,0,0,0,8.14-1.39,15.45,15.45,0,0,0,5.66-6.28,28.39,28.39,0,0,0,2.67-8c.46-2.77.93-5.62.36-8.3a6.22,6.22,0,0,0-1.94-3.44,3.57,3.57,0,0,0-3.6-.84,5.29,5.29,0,0,0-2.7,2.71,11.79,11.79,0,0,0-1.12,3.81,16.27,16.27,0,0,0,.85,7.78,13.45,13.45,0,0,0,4.44,6.18,12.79,12.79,0,0,0,7,2.59,12,12,0,0,0,7-1.73,7.75,7.75,0,0,0,3.79-5.69,6.22,6.22,0,0,0-.68-3.32,3.83,3.83,0,0,0-2.49-2,4.09,4.09,0,0,0-3.1.78,6.88,6.88,0,0,0-2.14,2.47,21.39,21.39,0,0,0-1.8,6.28c-.39,2.14-.76,4.23-1.13,6.29-.71,4.11-1.34,8.07-1.9,11.85-2.26,15.12-3.39,27.46-4.07,36-.33,4.27-.54,7.58-.68,9.83-.07,1.12-.12,2-.16,2.56S197.42,235.74,197.42,235.74Z" style="fill:#fff"></path><g id="freepik--2ggvdetif--inject-148"><path d="M153.31,283.06a21.23,21.23,0,0,1,3.79,4.58,4.57,4.57,0,0,0,3.3,2.26l13.54,2.1a4.62,4.62,0,0,0,4.1-1.42c1.22-1.32,3.27-2.78,5.19-2.88Z" style="fill:#263238"></path></g><path d="M144.51,243.1c0,.27-.19,21.9-.24,30.17a10.09,10.09,0,0,0,4.41,8.53,9.23,9.23,0,0,0,3.72,1.44L182,287.83s7.73,1.2,10.44-4.66c2.85-6.18,10.28-31,10.28-31Z" style="fill:#e0e0e0"></path><path d="M169.13,247.59h.16a1.49,1.49,0,0,1,1.49,1.49v52.19a1.48,1.48,0,0,1-1.48,1.48h-.16a1.48,1.48,0,0,1-1.48-1.48V249.07a1.49,1.49,0,0,1,1.49-1.49Z" transform="translate(-128.21 401.24) rotate(-81.38)" style="fill:#e0e0e0"></path><path d="M194.77,280.63a1.74,1.74,0,0,0,1.07-.31,1.51,1.51,0,0,0,.58-1.18,1.42,1.42,0,0,0-.88-1.43c-2.8-.47-7-1-12.07-1.78l-39.87-6a1.24,1.24,0,0,0-1.1.4,1.29,1.29,0,0,0-.28.53,2,2,0,0,0-.05.63,1.25,1.25,0,0,0,.69.93,7.59,7.59,0,0,0,1.34.26l5.6.85,10.58,1.62L178.29,278l12.07,1.91,3.28.54.85.16.28.07-.29,0-.86-.11-3.29-.45-12.09-1.75-17.93-2.66-10.59-1.59-5.6-.84-.71-.11a2.7,2.7,0,0,1-.77-.19,1.77,1.77,0,0,1-1-1.32,2.21,2.21,0,0,1,.06-.82,1.73,1.73,0,0,1,2-1.31l39.85,6.11c5.1.82,9.21,1.41,12.08,2a1.58,1.58,0,0,1,1,1.63,1.62,1.62,0,0,1-.67,1.24A1.35,1.35,0,0,1,194.77,280.63Z" style="fill:#263238"></path><path d="M170.16,239.82h.16a1.48,1.48,0,0,1,1.48,1.48v54.4a1.49,1.49,0,0,1-1.49,1.49h-.16a1.48,1.48,0,0,1-1.48-1.48v-54.4A1.49,1.49,0,0,1,170.16,239.82Z" transform="translate(-120.75 396.6) rotate(-81.38)" style="fill:#e0e0e0"></path><path d="M196.9,274.14a1.68,1.68,0,0,0,1.1-.34,1.54,1.54,0,0,0,.55-1.24,1.4,1.4,0,0,0-1-1.39L185,269.34l-41.42-6.2a1.22,1.22,0,0,0-1.13.43,1.2,1.2,0,0,0-.26.56,1.49,1.49,0,0,0,0,.66,1.24,1.24,0,0,0,.8.89c.4.1,1,.16,1.43.24l5.82.88,11,1.68,18.61,2.88,12.53,2,3.41.56.88.16a1.1,1.1,0,0,1,.3.08,2.33,2.33,0,0,1-.31,0l-.89-.1-3.42-.47-12.56-1.83L161.1,269l-11-1.66-5.81-.87c-.51-.09-.95-.12-1.52-.26a1.73,1.73,0,0,1-1.13-1.26,2.07,2.07,0,0,1,0-.86,1.65,1.65,0,0,1,.37-.79,1.72,1.72,0,0,1,1.6-.61L185,269c5.3.83,9.57,1.49,12.55,2a1.57,1.57,0,0,1,1.14,1.58,1.67,1.67,0,0,1-.64,1.32A1.33,1.33,0,0,1,196.9,274.14Z" style="fill:#263238"></path><path d="M171.19,232.46h.16a1.49,1.49,0,0,1,1.49,1.49v55.81a1.48,1.48,0,0,1-1.48,1.48h-.16a1.48,1.48,0,0,1-1.48-1.48V233.95A1.48,1.48,0,0,1,171.19,232.46Z" transform="translate(-113.29 391.96) rotate(-81.38)" style="fill:#e0e0e0"></path><path d="M198.63,267.58a1.64,1.64,0,0,0,1.12-.35,1.58,1.58,0,0,0,.53-1.28,1.4,1.4,0,0,0-1.14-1.36l-12.86-1.86-42.4-6.36a1.24,1.24,0,0,0-1.15.46,1.26,1.26,0,0,0-.26.59,1.46,1.46,0,0,0,0,.66,1.22,1.22,0,0,0,.87.86c.45.09,1,.16,1.49.24l5.95.9,11.26,1.72,19,2.94,12.83,2,3.49.58.9.16.31.07-.31,0-.92-.11-3.5-.48L181,265.1,162,262.26l-11.26-1.69-5.95-.89c-.52-.09-1-.14-1.55-.25a1.73,1.73,0,0,1-1.22-1.21,2,2,0,0,1,0-.88,1.78,1.78,0,0,1,.36-.82,1.75,1.75,0,0,1,1.63-.65l42.38,6.5,12.84,2a1.56,1.56,0,0,1,1.25,1.54,1.7,1.7,0,0,1-.61,1.37A1.34,1.34,0,0,1,198.63,267.58Z" style="fill:#263238"></path><path d="M172.22,224.67h.16a1.48,1.48,0,0,1,1.48,1.48v58.08a1.48,1.48,0,0,1-1.48,1.48h-.16a1.49,1.49,0,0,1-1.49-1.49V226.16a1.48,1.48,0,0,1,1.48-1.48Z" transform="translate(-105.82 387.32) rotate(-81.38)" style="fill:#e0e0e0"></path><path d="M200.78,261.09a1.52,1.52,0,0,0,1.65-1.73,1.4,1.4,0,0,0-1.31-1.28l-13.34-1.94-44-6.59a1.23,1.23,0,0,0-1.18.49,1.56,1.56,0,0,0-.19,1.31,1.29,1.29,0,0,0,1,.8l1.57.23,6.18.94,11.67,1.79,19.76,3.05,13.32,2.1,3.62.59.93.17.32.07a1,1,0,0,1-.32,0l-1-.12-3.63-.5-13.34-1.94-19.78-2.94-11.67-1.76-6.18-.93-1.58-.24a1.75,1.75,0,0,1-1.38-1.12,1.81,1.81,0,0,1-.08-.92,1.9,1.9,0,0,1,.33-.86,1.77,1.77,0,0,1,1.67-.69l44,6.73,13.32,2.1a1.58,1.58,0,0,1,1.43,1.47,1.73,1.73,0,0,1-.57,1.44,1.43,1.43,0,0,1-.9.34A.78.78,0,0,1,200.78,261.09Z" style="fill:#263238"></path><path d="M140.14,216.51c-.09.55-.88,13.68-1.28,20.43a8.09,8.09,0,0,0,2.7,6.53l2.72,2.42,57.24,8.88,3.28-1.46a8.14,8.14,0,0,0,4.57-5.49L214.18,228Z" style="fill:#F97116"></path><g style="opacity:0.30000000000000004"><path d="M145.11,273c5.32,2.11,10.8,3.06,16.85,4,4.89.73,9.66,1.61,15,2.32,3.9.53,7.5.88,11.4,1.32,2,.22,4.2.05,4.66-.28Z"></path></g><g style="opacity:0.30000000000000004"><path d="M144.1,266c5.75,2.17,11.66,3.2,18.19,4.18,5.27.8,10.42,1.73,16.15,2.51,4.2.57,8.09,1,12.3,1.45,2.12.25,4.52.11,5-.22Z"></path></g><g style="opacity:0.30000000000000004"><path d="M145.13,259.36c5.75,2.17,11.66,3.2,18.19,4.18,5.27.8,10.41,1.73,16.15,2.51,4.2.57,8.09,1,12.29,1.45,2.13.25,4.52.11,5-.22Z"></path></g><g style="opacity:0.30000000000000004"><path d="M146.15,252.75c5.75,2.17,11.66,3.2,18.19,4.18,5.27.8,10.42,1.73,16.15,2.51,4.21.57,8.09,1,12.3,1.45,2.12.25,4.52.11,5-.22Z"></path></g><path d="M155.93,209.12a6.06,6.06,0,0,1-.77-.4c-.48-.28-1.23-.66-2.13-1.24a61.1,61.1,0,0,1-7.36-5.33,64.15,64.15,0,0,1-9.38-9.68,64.18,64.18,0,0,1-13.14-30A65.45,65.45,0,0,1,122.4,149a61.25,61.25,0,0,1,1.07-9c.18-1,.41-1.86.54-2.41a7.49,7.49,0,0,1,.22-.83,4,4,0,0,1-.13.85c-.08.56-.28,1.37-.44,2.43a68.81,68.81,0,0,0-.9,9,66.7,66.7,0,0,0,5.49,29.08,67,67,0,0,0,17.65,23.75,69.15,69.15,0,0,0,7.23,5.44c.89.6,1.61,1,2.08,1.32A4.91,4.91,0,0,1,155.93,209.12Z" style="fill:#263238"></path><path d="M129.22,124.05a13.09,13.09,0,0,1-1.16,3.43,13.18,13.18,0,0,1-1.63,3.25,13,13,0,0,1,1.16-3.44A13.84,13.84,0,0,1,129.22,124.05Z" style="fill:#263238"></path><path d="M246.81,178a3.42,3.42,0,0,1,.22-.71c.18-.51.43-1.17.73-2l.55-1.44c.18-.53.33-1.12.52-1.75.36-1.26.86-2.67,1.17-4.29.17-.81.36-1.65.56-2.53s.28-1.81.44-2.77c.34-1.91.45-4,.63-6.15a67.54,67.54,0,0,0-4.43-27.8c-.85-2-1.59-3.94-2.52-5.65-.44-.86-.82-1.72-1.27-2.49l-1.32-2.23c-.8-1.45-1.71-2.63-2.44-3.72-.38-.54-.71-1-1.05-1.5l-1-1.2c-.55-.69-1-1.25-1.32-1.67a4.93,4.93,0,0,1-.43-.6,3.39,3.39,0,0,1,.51.53l1.4,1.62c.3.35.63.75,1,1.17s.69,1,1.08,1.48a43.6,43.6,0,0,1,2.51,3.7c.44.71.89,1.45,1.36,2.23s.85,1.63,1.31,2.49c.94,1.71,1.71,3.66,2.57,5.68a66,66,0,0,1,4.46,28,62,62,0,0,1-.68,6.19c-.17,1-.27,1.9-.47,2.79l-.6,2.53a41.58,41.58,0,0,1-1.24,4.3c-.2.62-.37,1.21-.57,1.74l-.58,1.43c-.34.82-.62,1.47-.83,2A6.52,6.52,0,0,1,246.81,178Z" style="fill:#263238"></path><g style="opacity:0.2"><path d="M192.88,102.25c-.75-3.09-3.63-5.71-7.27-7.44A22,22,0,0,0,169,94.09c-16,5.52-25.9,13.65-33.69,29.59-2.64,5.39-5,14.63-3.05,20.62a11.35,11.35,0,0,0,5.86,7c7.45,3.48,14.83-3.14,18.38-10,3.3-6.4,5.3-13.9,10.92-18.42,4.63-3.71,10.83-4.65,16.25-7.06S194.27,108,192.88,102.25Z" style="fill:#fff"></path></g><g style="opacity:0.2"><path d="M221,103.87c-1.86-4.82-8-7.65-12-6.54a11.41,11.41,0,0,0-7.3,6.77,10.44,10.44,0,0,0,2.92,11.3,9.88,9.88,0,0,0,11.56.68C219.66,113.75,222.51,107.74,221,103.87Z" style="fill:#fff"></path></g><path d="M140.14,216.51c-.09.55-.88,13.68-1.28,20.43a8.09,8.09,0,0,0,2.7,6.53l2.72,2.42,57.24,8.88,3.28-1.46a8.14,8.14,0,0,0,4.57-5.49L214.18,228Z" style="opacity:0.30000000000000004"></path><path d="M214.62,228.06c0,.14-16.64-2.32-37.11-5.5s-37.06-5.86-37-6,16.64,2.32,37.12,5.5S214.64,227.92,214.62,228.06Z" style="fill:#263238"></path><path d="M207.54,250.36c0,.14-15.35-2.13-34.23-5.06s-34.18-5.41-34.16-5.55,15.34,2.12,34.23,5.05S207.56,250.22,207.54,250.36Z" style="fill:#263238"></path></g></svg>